<svg xmlns="http://www.w3.org/2000/svg" width="1200" height="628" viewBox="0 0 1200 628"><defs><linearGradient id="bgGrad" x1="0%" x2="100%" y1="0%" y2="100%"><stop offset="0%" style="stop-color:#1e1e2e"/><stop offset="50%" style="stop-color:#1a3a2e"/><stop offset="100%" style="stop-color:#0d1117"/></linearGradient><linearGradient id="emeraldGrad" x1="0%" x2="100%" y1="0%" y2="100%"><stop offset="0%" style="stop-color:#10b981"/><stop offset="100%" style="stop-color:#059669"/></linearGradient><filter id="glow"><feGaussianBlur result="coloredBlur" stdDeviation="4"/><feMerge><feMergeNode in="coloredBlur"/><feMergeNode in="SourceGraphic"/></feMerge></filter></defs><rect width="1200" height="628" fill="url(#bgGrad)"/><g opacity=".1"><pattern id="grid" width="40" height="40" patternUnits="userSpaceOnUse"><path fill="none" stroke="#10b981" stroke-width=".5" d="M 40 0 L 0 0 0 40"/></pattern><rect width="1200" height="628" fill="url(#grid)"/></g><circle cx="100" cy="100" r="150" fill="none" stroke="#10b981" stroke-width="1" opacity=".1"/><circle cx="1100" cy="528" r="200" fill="none" stroke="#10b981" stroke-width="1" opacity=".1"/><g transform="translate(100, 180)"><path fill="none" stroke="url(#emeraldGrad)" stroke-width="4" d="M80 0 L140 40 L140 120 L80 160 L20 120 L20 40 Z" filter="url(#glow)"/><rect width="80" height="64" x="40" y="40" fill="url(#emeraldGrad)" opacity=".9" rx="8"/><circle cx="60" cy="64" r="10" fill="#0d1117"/><circle cx="100" cy="64" r="10" fill="#0d1117"/><circle cx="60" cy="64" r="4" fill="#6ee7b7"/><circle cx="100" cy="64" r="4" fill="#6ee7b7"/><rect width="50" height="8" x="55" y="84" fill="#0d1117" rx="4"/><line x1="80" x2="80" y1="40" y2="20" stroke="url(#emeraldGrad)" stroke-width="3"/><circle cx="80" cy="14" r="6" fill="url(#emeraldGrad)"/><g transform="translate(120, 112)"><circle r="16" fill="#0d1117" stroke="#10b981" stroke-width="2"/><path fill="none" stroke="#10b981" stroke-linecap="round" stroke-width="2.5" d="M-6 0 L-2 4 L6 -5"/></g></g><g><text fill="#fff" font-family="Inter, system-ui, sans-serif" font-size="72" font-weight="800" transform="translate(320, 200)">AgentOS</text><text y="60" fill="#94a3b8" font-family="Inter, system-ui, sans-serif" font-size="28" transform="translate(320, 200)">Build safe AI agents with natural language</text></g><g><g transform="translate(320, 340)"><rect width="180" height="50" fill="#10b981" opacity=".2" rx="8"/><rect width="180" height="50" fill="none" stroke="#10b981" stroke-width="1" rx="8"/><text x="20" y="32" fill="#6ee7b7" font-family="Inter, system-ui, sans-serif" font-size="16" font-weight="600">📚 50+ Templates</text></g><g transform="translate(320, 340) translate(200, 0)"><rect width="220" height="50" fill="#10b981" opacity=".2" rx="8"/><rect width="220" height="50" fill="none" stroke="#10b981" stroke-width="1" rx="8"/><text x="20" y="32" fill="#6ee7b7" font-family="Inter, system-ui, sans-serif" font-size="16" font-weight="600">🛡️ GDPR • HIPAA • SOC2</text></g><g transform="translate(320, 340) translate(440, 0)"><rect width="200" height="50" fill="#10b981" opacity=".2" rx="8"/><rect width="200" height="50" fill="none" stroke="#10b981" stroke-width="1" rx="8"/><text x="20" y="32" fill="#6ee7b7" font-family="Inter, system-ui, sans-serif" font-size="16" font-weight="600">✅ 0% Policy Violations</text></g></g><g transform="translate(750, 180)"><rect width="380" height="280" fill="#0d1117" stroke="#30363d" stroke-width="1" rx="12"/><rect width="380" height="36" fill="#161b22" rx="12"/><circle cx="20" cy="18" r="6" fill="#ff5f57"/><circle cx="40" cy="18" r="6" fill="#febc2e"/><circle cx="60" cy="18" r="6" fill="#28c840"/><text x="100" y="23" fill="#8b949e" font-family="monospace" font-size="12">Copilot Chat</text><text x="20" y="70" fill="#7ee787" font-family="monospace" font-size="14">User:</text><text x="20" y="90" fill="#c9d1d9" font-family="monospace" font-size="12">@agentos create an agent that</text><text x="20" y="108" fill="#c9d1d9" font-family="monospace" font-size="12">monitors my API endpoints</text><text x="20" y="145" fill="#10b981" font-family="monospace" font-size="14">AgentOS:</text><text x="20" y="165" fill="#c9d1d9" font-family="monospace" font-size="12">🤖 Creating your agent...</text><text x="20" y="185" fill="#c9d1d9" font-family="monospace" font-size="12">✅ Generated Python code</text><text x="20" y="205" fill="#c9d1d9" font-family="monospace" font-size="12">✅ Added safety policies</text><text x="20" y="225" fill="#c9d1d9" font-family="monospace" font-size="12">✅ Ready to deploy!</text><rect width="120" height="24" x="20" y="245" fill="#238636" rx="4"/><text x="40" y="262" fill="#fff" font-family="system-ui" font-size="12" font-weight="600">Deploy Now</text></g><g><text fill="#8b949e" font-family="Inter, system-ui, sans-serif" font-size="14" transform="translate(1050, 560)">Available on</text><text y="24" fill="#fff" font-family="Inter, system-ui, sans-serif" font-size="18" font-weight="600" transform="translate(1050, 560)">GitHub Marketplace</text></g></svg>